Did not see this posted here by any of the super groups so enjoy and please share.		

												

												

												

TTLTTLTTLTTLTTLTTLTTLTTLTTLTTLTTLTTLTTLTTLTTLTTLTTLTTLTTLTTL					

												

												

												

												

												

Silk_S02_E06_720p.HDTV.x264_TTL.mkv
Format                           : Matroska
File size                        : 698 MiB
Duration                         : 57mn 59s
Overall bit rate                 : 1 683 Kbps
Movie name                       : silk.2x06.720p.hdtv.x264.fov.mkv 16826
Encoded date                     : UTC 2012-06-21 15:50:34
Writing application              : mkvmerge v2.4.0 ('Fumbling Towards Ecstasy') built on 

Oct 11 2008 20:13:15
Writing library                  : libebml v0.7.7 + libmatroska v0.8.1

Video
ID                               : 1
Format                           : AVC
Format/Info                      : Advanced Video Codec
Format profile                   : High@L4.1
Format settings, CABAC           : Yes
Format settings, ReFrames        : 5 frames
Muxing mode                      : Container profile=Unknown@4.1
Codec ID                         : V_MPEG4/ISO/AVC
Duration                         : 57mn 59s
Bit rate                         : 1 458 Kbps
Width                            : 1 280 pixels
Height                           : 720 pixels
Display aspect ratio             : 16:9
Frame rate                       : 25.000 fps
Resolution                       : 8 bits
Colorimetry                      : 4:2:0
Scan type                        : Progressive
Bits/(Pixel*Frame)               : 0.063
Stream size                      : 605 MiB (87%)
Writing library                  : x264 core 125 r2200+677M 3a754e7

Language                         : English

Audio
ID                               : 2
Format                           : AC-3
Format/Info                      : Audio Coding 3
Codec ID                         : A_AC3
Duration                         : 57mn 59s
Bit rate mode                    : Constant
Bit rate                         : 192 Kbps
Channel(s)                       : 2 channels
Channel positions                : L R
Sampling rate                    : 48.0 KHz
Stream size                      : 79.6 MiB (11%)

